<?xml version="1.0" encoding="UTF-8" standalone="no"?>
<!-- Created with Inkscape (http://www.inkscape.org/) -->

<svg
   xmlns:dc="http://purl.org/dc/elements/1.1/"
   xmlns:cc="http://creativecommons.org/ns#"
   xmlns:rdf="http://www.w3.org/1999/02/22-rdf-syntax-ns#"
   xmlns:svg="http://www.w3.org/2000/svg"
   xmlns="http://www.w3.org/2000/svg"
   xmlns:sodipodi="http://sodipodi.sourceforge.net/DTD/sodipodi-0.dtd"
   xmlns:inkscape="http://www.inkscape.org/namespaces/inkscape"
   id="svg2"
   version="1.1"
   inkscape:version="0.48.4 r9939"
   width="200"
   height="43"
   xml:space="preserve"
   sodipodi:docname="Floreio.eps"
   inkscape:export-filename="/var/www/html/novo/images/floreio2.png"
   inkscape:export-xdpi="90"
   inkscape:export-ydpi="90"><metadata
     id="metadata8"><rdf:RDF><cc:Work
         rdf:about=""><dc:format>image/svg+xml</dc:format><dc:type
           rdf:resource="http://purl.org/dc/dcmitype/StillImage" /><dc:title></dc:title></cc:Work></rdf:RDF></metadata><defs
     id="defs6"><clipPath
       clipPathUnits="userSpaceOnUse"
       id="clipPath18"><path
         d="m 0,2.35938 11620,0 0,5330.00002 -11620,0 L 0,2.35938 z"
         id="path20"
         inkscape:connector-curvature="0" /></clipPath></defs><sodipodi:namedview
     pagecolor="#ffffff"
     bordercolor="#666666"
     borderopacity="1"
     objecttolerance="10"
     gridtolerance="10"
     guidetolerance="10"
     inkscape:pageopacity="0"
     inkscape:pageshadow="2"
     inkscape:window-width="1678"
     inkscape:window-height="907"
     id="namedview4"
     showgrid="false"
     inkscape:snap-grids="true"
     inkscape:snap-page="true"
     inkscape:snap-object-midpoints="false"
     inkscape:zoom="1.9332186"
     inkscape:cx="-36.906916"
     inkscape:cy="21.533475"
     inkscape:window-x="0"
     inkscape:window-y="25"
     inkscape:window-maximized="0"
     inkscape:current-layer="g14" /><g
     id="g10"
     inkscape:groupmode="layer"
     inkscape:label="ink_ext_XXXXXX"
     transform="matrix(1.25,0,0,-1.25,0,43)"><g
       id="g12"
       transform="scale(0.1,0.1)"><g
         id="g14"
         style="display:inline"><g
           id="g16"
           clip-path="url(#clipPath18)"
           transform="matrix(0.30923761,0,0,0.25367531,-494.67965,-314.14245)"
           style="fill:#396673;fill-opacity:1"
           inkscape:export-filename="/var/www/html/novo/images/floreio2.png"
           inkscape:export-xdpi="90"
           inkscape:export-ydpi="90"><path
             d="m 4307.6425,2121.5942 c -104.3,-42.81 -213.16,-87.03 -321.72,-130.12 -27.22,17.308 -55,34.3 -82.77,50.74 -38.28,22.39 -76.25,43.64 -115.35,64.07 l 3.4,1.13 c 109.96,38.24 208.63,75.12 290.27,108.01 22.38,9.06 43.63,17.85 63.48,26.64 45.35,-38.01 103.47,-80.51 162.69,-120.47 z m -45.62,65.74 c -37.43,25.82 -67.19,47.34 -90.71,66.64 39.96,18.4 72.85,36.56 98.09,55.55 42.23,31.76 62.62,66.33 66.6,99.76 3.99,33.44 -8.2,65.78 -37.15,91.57 -28.63,26.09 -73.98,45.62 -119.33,44.8 -45.36,-0.86 -90.98,-22.11 -118.75,-49.34 -28.09,-27.22 -38.56,-60.39 -32.89,-96.95 5.66,-36.56 27.5,-76.25 85.62,-130.12 3.95,-3.67 7.93,-7.34 12.19,-11.05 -18.17,-8.2 -37.15,-16.13 -56.45,-24.38 -58.67,-24.37 -121.6,-48.75 -219.1,-82.46 -28.05,-9.64 -58.67,-20.15 -90.7,-30.89 -46.76,23.51 -94.96,45.89 -146.56,67.46 -105.43,44.49 -224.22,86.72 -343.83,118.2 -119.61,31.44 -239.81,52.42 -346.41,64.06 -106.56,11.6 -199.57,13.6 -280.35,9.34 -63.75,-3.4 -120.2,-10.74 -172.621,-22.97 -19.258,24.96 -42.809,47.66 -70.579,68.63 -50.468,37.38 -116.21,67.74 -183.402,85.31 -67.187,17.58 -135.777,22.11 -205.238,11.33 -69.449,-10.78 -139.449,-36.83 -197.852,-73.71 -58.398,-36.83 -105.148,-84.18 -139.1794,-140 -34.0195,-55.86 -55.2695,-120.19 -62.3789,-192.77 -7.0703,-72.85 0,-153.909 24.1016,-227.89 24.0976,-73.988 65.5078,-140.629 124.9997,-194.18 59.848,-53.601 137.77,-93.832 210.899,-121.921 73.16,-28.039 141.172,-44.207 223.949,-53.547 83.043,-9.383 181.133,-12.192 295.93,-5.391 114.811,6.801 246.641,22.969 377.851,46.758 131.25,23.82 262.5,54.723 400.55,93.281 138.32,38.551 283.75,84.762 447.03,145.11 100.9,37.152 208.36,79.968 321.17,125.589 44.22,-30.039 87.58,-60.39 119.34,-83.629 22.97,-16.992 39.96,-30.039 53.28,-41.371 l -0.55,-0.269 c -47.93,-22.418 -90.74,-43.668 -119.37,-66.641 -28.59,-22.969 -43.63,-47.621 -50.7,-75.98 -7.11,-28.321 -6.53,-60.66 12.18,-85.59 18.71,-24.641 55.55,-41.949 98.05,-49.059 42.27,-7.07 89.88,-3.941 123.91,17.578 33.71,21.563 53.83,61.524 59.22,98.09 5.66,36.563 -3.4,69.723 -31.18,107.141 -12.46,16.723 -28.9,34.301 -49.33,53.293 21.83,9.918 45.35,20.148 70.04,30.348 66.05,27.769 140.58,56.679 219.68,85.582 26.37,9.648 53.01,19.296 79.93,28.636 l 6.79,-3.398 c 97.82,-47.352 207.5,-94.961 312.66,-132.391 105.19,-37.379 205.82,-64.879 295.94,-86.168 90.15,-21.25 169.8,-36.832 265.62,-45.902 95.82,-9.059 207.78,-11.91 289.69,-6.52 49.61,3.403 88.44,9.653 121.6,18.129 16.45,-20.386 34.88,-39.109 55.27,-55.816 49.34,-40.551 109.73,-69.461 174.07,-85.633 64.33,-16.437 132.65,-20.117 216.56,-7.34 83.91,12.461 183.67,41.641 253.12,96.36 69.46,54.691 108.87,135.203 128.72,224.222 19.57,89.028 19.57,186.249 -3.13,273.239 -22.69,87.04 -68.32,163.87 -129.26,224.54 -60.93,60.66 -137.18,104.88 -246.05,136.91 -108.83,32.03 -250.28,51.56 -401.96,53.28 -151.64,1.41 -313.51,-15.04 -486.99,-46.21 -173.47,-31.17 -358.59,-76.52 -545.39,-137.77 -186.79,-61.21 -375,-138.05 -583.08,-223.36 l -6.8,-2.85 c -27.77,18.43 -54.41,36.29 -77.93,52.73 l 0.55,0 z m -498.6,-97.77 c 56.1,-28.64 107.15,-57 177.7,-102.071 l 13.04,-8.48 c -86.44,-34.02 -172.34,-67.188 -255.97,-97.539 -212.03,-77.379 -407.62,-138.91 -551.88,-182.258 -144.57,-43.363 -237.85,-68.32 -326.56,-88.992 -88.71,-20.7 -172.62,-36.871 -246.91,-49.059 -74.261,-12.191 -138.871,-20.121 -198.992,-22.383 -60.078,-2.269 -115.347,1.133 -167.218,6.25 -51.879,5.071 -100.629,12.184 -151.098,26.321 -50.473,14.179 -103.16,35.472 -153.082,62.39 -49.891,26.91 -96.918,60.071 -136.61,100.903 -39.679,40.82 -72.0308,89.878 -90.7417,145.968 -18.668,56.129 -24.0586,119.649 -17.2578,178.87 6.5195,59.26 24.9179,114.8 52.7305,165.86 27.461,51.01 64.059,97.77 117.617,138.87 53.594,41.13 123.871,76.56 181.992,94.68 58.09,18.44 104.02,19.57 154.77,13.91 51.012,-5.66 106.871,-18.44 150.23,-34.88 43.36,-16.72 74.258,-37.11 101.481,-65.47 7.078,-7.39 14.179,-15.31 20.711,-23.52 l -8.242,-2.3 c -63.75,-18.4 -122.469,-44.22 -167.5,-79.92 -44.809,-35.71 -75.981,-81.06 -93.29,-136.06 -17.3,-55 -20.699,-119.059 -1.402,-164.411 18.981,-45.347 60.66,-71.449 101.762,-85.898 41.09,-14.449 82.18,-17.27 121.051,-5.942 38.828,11.332 75.66,36.563 104.3,81.641 28.629,45.078 49.02,109.96 51.868,170.63 2.851,59.53 -11.047,114.8 -34.879,164.41 6.84,1.72 13.91,3.4 20.699,5.12 56.723,13.59 111.411,21.52 174.921,27.5 63.48,5.94 135.79,9.92 217.11,5.94 81.37,-3.99 171.8,-15.86 248.32,-31.18 76.53,-15.31 139.46,-33.75 205.79,-54.41 66.32,-20.7 136.64,-43.95 202.11,-70.04 51.05,-20.39 99.21,-42.5 144.57,-64.61 -70,-23.24 -144.26,-47.34 -208.32,-67.77 -104.61,-33.168 -182.58,-55.82 -238.68,-66.602 -56.13,-11.058 -90.74,-9.929 -130.43,1.133 -39.96,11.328 -85.04,32.891 -128.94,60.389 -43.95,27.5 -86.76,60.94 -122.19,84.73 -35.43,23.82 -63.79,37.42 -97.5,38 -33.75,0.55 -72.85,-12.46 -95.82,-32.03 -22.97,-19.57 -30.04,-46.21 -32.03,-71.44 -1.99,-25.239 1.41,-49.34 5.94,-60.079 4.25,-11.062 9.65,-8.793 10.78,-0.312 1.13,8.512 -1.41,23.82 -0.55,43.671 1.13,19.84 5.94,44.49 22.38,60.08 16.45,15.62 44.5,22.42 77.11,15.89 32.58,-6.52 69.73,-26.64 109.42,-55.27 39.37,-28.629 81.33,-65.781 125.27,-91.289 43.95,-25.512 90.16,-39.41 160.16,-33.711 70.04,5.672 163.86,30.859 271.29,63.199 95.5,28.641 201.52,62.931 301.32,96.961 l 9.34,-4.85 0.31,-0.54 z m 306.68,-153.36 c 59.81,24.102 121.06,49.289 183.4,74.531 45.94,18.707 92.42,37.419 138.91,56.409 66.33,-40.83 131.52,-76.53 202.11,-111.678 -78.79,-28.641 -147.11,-55.551 -202.39,-78.25 -66.05,-26.91 -113.39,-47.613 -154.49,-66.602 -22.38,19.571 -48.75,40.551 -79.65,63.52 -26.36,19.531 -56.13,40.512 -87.89,62.07 z m 837.93,-92.699 c -88.44,30.039 -167.54,66.328 -234.69,98.641 l -20.43,9.918 c 44.81,15.582 90.71,30.621 136.65,45.351 84.45,26.641 169.49,51.329 233,68.049 63.48,16.71 104.89,25.23 146.53,25.5 41.68,0.28 83.63,-7.65 124.18,-28.36 40.54,-20.66 79.92,-54.412 114.53,-82.458 34.57,-28.082 64.33,-51.051 98.9,-65.192 34.57,-14.18 73.44,-19.57 105.16,-14.769 31.76,5.121 55.86,20.711 70.9,44.218 14.73,23.243 20.12,54.45 18.4,78.832 -1.41,24.369 -9.92,41.949 -17,51.289 -7.1,9.65 -13.04,11.05 -14.72,7.65 -1.72,-3.39 0.82,-12.18 4.22,-24.37 3.4,-12.19 7.65,-28.362 6.83,-46.76 -0.86,-18.441 -6.52,-39.41 -22.42,-51.328 -15.58,-11.91 -41.09,-15.043 -65.19,-9.922 -23.79,5.121 -45.9,18.711 -80.79,45.629 -34.88,26.68 -82.18,66.641 -119.92,91.011 -37.69,24.1 -66.01,32.31 -106.29,37.11 -40.23,4.85 -92.11,5.98 -193.04,-15.86 -100.9,-21.83 -250.59,-66.6 -380.39,-110.538 -30.63,-10.204 -60.08,-20.711 -88.44,-30.633 -47.07,23.832 -91.29,47.621 -144.02,79.381 -17.86,10.78 -36.84,22.38 -55.83,34.57 138.33,55.58 276.37,110.27 399.11,156.21 173.47,64.92 316.09,113.08 438.82,148.51 122.74,35.43 225.36,58.71 322.31,76.84 96.64,18.44 187.34,31.76 269.84,39.96 82.5,8.24 156.49,11.05 232.42,7.38 75.98,-3.4 153.95,-13.32 218.01,-28.08 64.34,-14.73 115.08,-34.57 162.97,-59.81 47.93,-25.23 92.7,-55.82 132.97,-102.03 40.23,-45.94 75.39,-107.15 94.38,-162.15 18.98,-55 21.25,-103.48 16.17,-153.359 -5.12,-49.879 -18.17,-101.481 -41.1,-152.77 -22.97,-51.332 -55.86,-102.621 -106.01,-147.109 -50.2,-44.223 -117.93,-81.641 -178.32,-104.614 -60.35,-22.968 -113.67,-32.027 -159.89,-32.296 -46.17,-0.321 -85.58,7.918 -122.42,20.109 -36.87,12.187 -71.44,28.051 -101.48,51.019 -20.98,15.86 -40,35.43 -56.99,56.129 9.92,3.403 19.25,6.801 28.63,10.469 46.48,19.024 87.3,43.094 124.45,77.113 37.11,34.02 70.86,77.661 90.71,135.231 20.11,57.539 26.36,129.258 1.13,183.088 -25.24,53.59 -82.23,89.3 -136.37,96.09 -54.14,6.53 -105.43,-15.86 -144.84,-57.54 -39.1,-41.95 -66.33,-103.16 -75.12,-166.951 -8.79,-64.058 0.27,-130.66 24.1,-190.187 3.4,-8.524 7.07,-17.043 11.33,-25.242 -42.5,-10.192 -88.44,-17.301 -136.33,-22.66 -75.43,-8.508 -155.08,-12.5 -246.05,-6.25 -90.98,6.25 -193.05,22.39 -293.09,42.5 -100.08,20.16 -197.89,43.679 -286.33,73.718 l 0.86,-0.277 z m 990.16,-79.371 c -9.92,18.43 -17.58,37.969 -22.42,58.398 -8.48,36.563 -7.93,76.793 0.58,119.063 8.52,42.5 25.24,86.988 52.74,122.149 27.5,35.15 65.47,60.66 98.9,71.99 33.48,11.64 62.07,9.1 84.5,-2.27 22.65,-11.32 39.1,-31.17 48.16,-57.81 9.1,-26.64 10.51,-59.801 -1.68,-95.821 -12.19,-35.98 -38.56,-74.801 -75.39,-110.551 -36.88,-35.699 -84.49,-68.859 -144.02,-91.558 -13.32,-5.078 -26.92,-9.61 -41.37,-13.871 l 0,0.281 z m -1746.45,506.56 c -7.65,7.07 -14.45,13.87 -20.7,20.39 -26.64,29.22 -38.83,56.13 -41.37,84.49 -2.54,28.32 4.81,57.82 21.84,80.51 16.99,22.66 43.36,38.24 71.13,44.22 27.77,5.94 56.99,2.26 79.38,-8.52 22.38,-11.05 37.69,-29.22 43.67,-49.61 5.94,-20.39 2.54,-43.08 -10.51,-66.05 -13.32,-22.66 -36.29,-45.63 -74.84,-69.14 -19.26,-11.92 -42.78,-24.1 -68.6,-36.29 z m 4.53,-521.88 c 19.85,11.332 43.09,23.25 69.18,35.71 9.93,-9.609 17,-18.128 23.25,-26.921 15.04,-21.829 24.37,-45.618 26.91,-72.258 2.58,-26.371 -1.41,-55.281 -16.45,-79.692 -15,-24.371 -40.78,-43.91 -68.86,-52.687 -28.05,-8.524 -58.67,-6.25 -81.64,4.25 -22.97,10.199 -38.83,28.316 -45.63,50.156 -6.79,21.563 -4.53,46.762 9.92,70.863 14.46,23.829 41.1,46.207 83.64,70.86 l -0.32,-0.281 z m -1673.281,527.54 c 15.859,-32.03 23.832,-60.66 25.242,-98.94 1.399,-38.24 -3.992,-86.17 -23.242,-128.13 -19.301,-41.951 -53.008,-77.381 -88.75,-99.22 -35.707,-21.52 -73.399,-29.45 -104.848,-26.641 -31.48,2.582 -56.441,15.59 -73.711,33.48 -17.582,17.852 -27.769,40.512 -25.82,74.532 1.988,34.029 15.629,79.099 45.352,116.529 29.488,37.38 74.847,66.87 126.718,91.25 36.289,17.03 76.25,31.48 116.211,43.35 l 2.848,-5.93 0,-0.28 z"
             style="fill:#396673;fill-opacity:1;fill-rule:nonzero;stroke:none"
             id="path66"
             inkscape:connector-curvature="0" /></g></g></g></g></svg>